<svg xmlns="http://www.w3.org/2000/svg" data-v-423bf9ae="" width="84.22222222222223" height="107.88888888888891"><rect id="backgroundrect" width="100%" height="100%" x="0" y="0" fill="none" stroke="none" class="" style=""/><!----><!----><!----><!----><!----><g class="currentLayer" style=""><title>Layer 1</title><g data-v-423bf9ae="" id="99e004c5-9cbf-4620-8765-86687d2ecbbb" stroke="none" fill="#727FD5"><g clip-rule="evenodd" stroke-width="0" id="svg_2"><path d="M0.8548072761100549,11.270387479856968 l18.495352158270943,95.88174012569851 l-6.381755075412326,-64.17511162261962 l31.54034639706082,-2.0562466966417103 l-0.058687802124023455,-10.740954599846736 L56.89731105995067,0.8478685470905825 L45.02172561903947,20.385472598638163 z" stroke-width="0" id="svg_3"/><path d="M51.28936552365509,59.04443203111294 l5.607945536295573,-58.188955805969236 l-9.498729454888238,43.1637916510688 l-21.31454028252496,1.135717652214898 l1.7062935061984594,22.238329760403104 l-8.440175394354927,39.75881231672499 l13.1036820409139,-43.36267809160021 z" stroke-width="0" id="svg_4"/><path d="M54.99647835782257,72.77520410583352 l0.5966593215942384,-11.360436955600315 l-17.366155372958712,4.080975869920519 l-0.03477795681423612,12.821111141798232 l-18.842044915262857,28.835273443603516 l23.562065741644965,-30.013376730685764 zM58.160185616767606,67.57155231750346 l16.12936428375244,-5.14170355275472 l1.6399980260213216,-13.619917337375218 l-17.279210480923126,2.2768693601820207 zM65.07121772244659,48.12632721374369 l11.941880921088325,-1.5400114001803928 l1.7182484288533528,-11.170245004272463 l-8.780347284444174,-0.40538055911593973 L56.89731105995067,0.8478685470905825 l9.161817998250326,33.65528089582655 z" stroke-width="0" id="svg_5"/><path d="M81.74616120372237,33.77172553866773 l1.3650348049587675,-10.331226796129016 l-10.372525619845922,-2.9278692392985026 L56.89731105995067,0.8478685470905825 l15.740285891893176,24.38478178253174 l-0.45863430548773876,7.6076780531141495 z" stroke-width="0" id="svg_6"/></g></g></g></svg>