<svg data-v-fde0c5aa="" xmlns="http://www.w3.org/2000/svg" viewBox="0 0 300 300" class="font"><!----><defs data-v-fde0c5aa=""><!----></defs><rect data-v-fde0c5aa="" fill="#442D81" x="0" y="0" width="300px" height="300px" class="logo-background-square"></rect><defs data-v-fde0c5aa=""><!----></defs><g data-v-fde0c5aa="" id="d1fe227a-2e13-4306-ad9b-fded44d871e6" fill="#727FD5" transform="matrix(5.020538601829,0,0,5.020538601829,36.13418537235084,105.91967002259047)"><path d="M9.45 13.82L7.33 13.82L5.18 9.60L5.18 9.60Q4.98 9.63 4.77 9.64L4.77 9.64L4.77 9.64Q4.57 9.65 4.35 9.65L4.35 9.65L4.35 9.65Q4.09 9.65 3.83 9.63L3.83 9.63L3.83 9.63Q3.57 9.61 3.29 9.58L3.29 9.58L3.29 13.05L4.83 13.54L4.83 13.82L0.77 13.82L0.77 13.54L2.03 13.05L2.03 4.51L0.77 4.02L0.77 3.74L4.62 3.74L4.62 3.74Q5.51 3.74 6.20 3.94L6.20 3.94L6.20 3.94Q6.89 4.14 7.37 4.51L7.37 4.51L7.37 4.51Q7.84 4.88 8.09 5.40L8.09 5.40L8.09 5.40Q8.33 5.91 8.33 6.54L8.33 6.54L8.33 6.54Q8.33 7.46 7.86 8.18L7.86 8.18L7.86 8.18Q7.38 8.89 6.45 9.27L6.45 9.27L8.44 13.15L9.45 13.54L9.45 13.82ZM4.82 4.46L4.82 4.46L3.29 4.46L3.29 8.85L3.29 8.85Q3.57 8.89 3.82 8.90L3.82 8.90L3.82 8.90Q4.07 8.92 4.31 8.92L4.31 8.92L4.31 8.92Q6.95 8.92 6.95 6.65L6.95 6.65L6.95 6.65Q6.95 5.55 6.40 5.00L6.40 5.00L6.40 5.00Q5.85 4.46 4.82 4.46ZM16.35 11.67L19.35 3.74L22.08 3.74L22.08 4.02L20.89 4.51L20.89 13.05L22.15 13.54L22.15 13.82L18.72 13.82L18.72 13.54L19.81 13.05L19.81 5.21L19.73 5.21L16.51 13.82L15.82 13.82L12.74 5.18L12.67 5.18L12.67 12.98L13.79 13.54L13.79 13.82L10.57 13.82L10.57 13.54L11.76 12.98L11.76 4.51L10.50 4.02L10.50 3.74L13.76 3.74L13.79 4.39L16.30 11.67L16.35 11.67ZM25.33 5.03L23.42 5.48L23.27 4.87L26.08 3.58L26.61 3.58L26.61 13.01L28.01 13.29L28.01 13.82L23.50 13.82L23.50 13.29L25.33 13.01L25.33 5.03ZM30.87 13.45L30.87 13.45L30.87 13.45Q32.44 13.45 33.49 12.40L33.49 12.40L33.49 12.40Q34.54 11.35 34.81 9.45L34.81 9.45L34.81 9.45Q33.54 10.34 32.46 10.34L32.46 10.34L32.46 10.34Q31.10 10.34 30.19 9.42L30.19 9.42L30.19 9.42Q29.28 8.50 29.28 6.98L29.28 6.98L29.28 6.98Q29.28 5.92 29.75 5.11L29.75 5.11L29.75 5.11Q30.22 4.30 31.01 3.88L31.01 3.88L31.01 3.88Q31.81 3.46 32.78 3.46L32.78 3.46L32.78 3.46Q34.53 3.46 35.42 4.70L35.42 4.70L35.42 4.70Q36.31 5.94 36.31 8.31L36.31 8.31L36.31 8.31Q36.31 9.20 36.10 10.05L36.10 10.05L36.10 10.05Q35.90 10.90 35.50 11.63L35.50 11.63L35.50 11.63Q35.09 12.36 34.53 12.91L34.53 12.91L34.53 12.91Q33.97 13.47 33.21 13.78L33.21 13.78L33.21 13.78Q32.44 14.10 31.58 14.10L31.58 14.10L31.58 14.10Q30.75 14.10 30.02 13.92L30.02 13.92L30.08 13.39L30.08 13.39Q30.42 13.45 30.87 13.45ZM32.78 4.20L32.78 4.20L32.78 4.20Q32.37 4.20 32.00 4.37L32.00 4.37L32.00 4.37Q31.62 4.53 31.32 4.85L31.32 4.85L31.32 4.85Q31.01 5.16 30.84 5.69L30.84 5.69L30.84 5.69Q30.66 6.22 30.66 6.89L30.66 6.89L30.66 6.89Q30.66 7.57 30.84 8.07L30.84 8.07L30.84 8.07Q31.02 8.58 31.34 8.87L31.34 8.87L31.34 8.87Q31.66 9.17 32.05 9.31L32.05 9.31L32.05 9.31Q32.44 9.45 32.92 9.45L32.92 9.45L32.92 9.45Q33.81 9.45 34.86 8.96L34.86 8.96L34.86 8.96Q34.89 8.73 34.89 8.25L34.89 8.25L34.89 8.25Q34.89 7.31 34.78 6.60L34.78 6.60L34.78 6.60Q34.67 5.88 34.43 5.33L34.43 5.33L34.43 5.33Q34.19 4.78 33.78 4.49L33.78 4.49L33.78 4.49Q33.36 4.20 32.78 4.20ZM39.16 13.45L39.16 13.45L39.16 13.45Q40.72 13.45 41.77 12.40L41.77 12.40L41.77 12.40Q42.83 11.35 43.09 9.45L43.09 9.45L43.09 9.45Q41.82 10.34 40.74 10.34L40.74 10.34L40.74 10.34Q39.38 10.34 38.47 9.42L38.47 9.42L38.47 9.42Q37.56 8.50 37.56 6.98L37.56 6.98L37.56 6.98Q37.56 5.92 38.04 5.11L38.04 5.11L38.04 5.11Q38.51 4.30 39.30 3.88L39.30 3.88L39.30 3.88Q40.09 3.46 41.06 3.46L41.06 3.46L41.06 3.46Q42.81 3.46 43.70 4.70L43.70 4.70L43.70 4.70Q44.59 5.94 44.59 8.31L44.59 8.31L44.59 8.31Q44.59 9.20 44.39 10.05L44.39 10.05L44.39 10.05Q44.19 10.90 43.78 11.63L43.78 11.63L43.78 11.63Q43.37 12.36 42.82 12.91L42.82 12.91L42.82 12.91Q42.26 13.47 41.49 13.78L41.49 13.78L41.49 13.78Q40.73 14.10 39.86 14.10L39.86 14.10L39.86 14.10Q39.04 14.10 38.30 13.92L38.30 13.92L38.37 13.39L38.37 13.39Q38.71 13.45 39.16 13.45ZM41.06 4.20L41.06 4.20L41.06 4.20Q40.65 4.20 40.28 4.37L40.28 4.37L40.28 4.37Q39.91 4.53 39.60 4.85L39.60 4.85L39.60 4.85Q39.30 5.16 39.12 5.69L39.12 5.69L39.12 5.69Q38.94 6.22 38.94 6.89L38.94 6.89L38.94 6.89Q38.94 7.57 39.13 8.07L39.13 8.07L39.13 8.07Q39.31 8.58 39.62 8.87L39.62 8.87L39.62 8.87Q39.94 9.17 40.34 9.31L40.34 9.31L40.34 9.31Q40.73 9.45 41.20 9.45L41.20 9.45L41.20 9.45Q42.10 9.45 43.15 8.96L43.15 8.96L43.15 8.96Q43.18 8.73 43.18 8.25L43.18 8.25L43.18 8.25Q43.18 7.31 43.07 6.60L43.07 6.60L43.07 6.60Q42.96 5.88 42.72 5.33L42.72 5.33L42.72 5.33Q42.48 4.78 42.06 4.49L42.06 4.49L42.06 4.49Q41.64 4.20 41.06 4.20Z"></path></g><!----><!----></svg>