<svg data-v-423bf9ae="" xmlns="http://www.w3.org/2000/svg" viewBox="0 0 350 107" class="iconLeftSlogan"><!----><!----><!----><g data-v-423bf9ae="" id="ecd55103-609e-4b0d-a69a-4b68beaf863b" fill="#FFFFFF" transform="matrix(5.639097562403148,0,0,5.639097562403148,97.91428114257393,-19.51127825786655)"><path d="M9.45 13.82L7.33 13.82L5.18 9.60L5.18 9.60Q4.98 9.63 4.77 9.64L4.77 9.64L4.77 9.64Q4.57 9.65 4.35 9.65L4.35 9.65L4.35 9.65Q4.09 9.65 3.83 9.63L3.83 9.63L3.83 9.63Q3.57 9.61 3.29 9.58L3.29 9.58L3.29 13.05L4.83 13.54L4.83 13.82L0.77 13.82L0.77 13.54L2.03 13.05L2.03 4.51L0.77 4.02L0.77 3.74L4.62 3.74L4.62 3.74Q5.51 3.74 6.20 3.94L6.20 3.94L6.20 3.94Q6.89 4.14 7.37 4.51L7.37 4.51L7.37 4.51Q7.84 4.88 8.09 5.40L8.09 5.40L8.09 5.40Q8.33 5.91 8.33 6.54L8.33 6.54L8.33 6.54Q8.33 7.46 7.86 8.18L7.86 8.18L7.86 8.18Q7.38 8.89 6.45 9.27L6.45 9.27L8.44 13.15L9.45 13.54L9.45 13.82ZM4.82 4.46L4.82 4.46L3.29 4.46L3.29 8.85L3.29 8.85Q3.57 8.89 3.82 8.90L3.82 8.90L3.82 8.90Q4.07 8.92 4.31 8.92L4.31 8.92L4.31 8.92Q6.95 8.92 6.95 6.65L6.95 6.65L6.95 6.65Q6.95 5.55 6.40 5.00L6.40 5.00L6.40 5.00Q5.85 4.46 4.82 4.46ZM16.35 11.67L19.35 3.74L22.08 3.74L22.08 4.02L20.89 4.51L20.89 13.05L22.15 13.54L22.15 13.82L18.72 13.82L18.72 13.54L19.81 13.05L19.81 5.21L19.73 5.21L16.51 13.82L15.82 13.82L12.74 5.18L12.67 5.18L12.67 12.98L13.79 13.54L13.79 13.82L10.57 13.82L10.57 13.54L11.76 12.98L11.76 4.51L10.50 4.02L10.50 3.74L13.76 3.74L13.79 4.39L16.30 11.67L16.35 11.67ZM25.33 5.03L23.42 5.48L23.27 4.87L26.08 3.58L26.61 3.58L26.61 13.01L28.01 13.29L28.01 13.82L23.50 13.82L23.50 13.29L25.33 13.01L25.33 5.03ZM30.87 13.45L30.87 13.45L30.87 13.45Q32.44 13.45 33.49 12.40L33.49 12.40L33.49 12.40Q34.54 11.35 34.81 9.45L34.81 9.45L34.81 9.45Q33.54 10.34 32.46 10.34L32.46 10.34L32.46 10.34Q31.10 10.34 30.19 9.42L30.19 9.42L30.19 9.42Q29.28 8.50 29.28 6.98L29.28 6.98L29.28 6.98Q29.28 5.92 29.75 5.11L29.75 5.11L29.75 5.11Q30.22 4.30 31.01 3.88L31.01 3.88L31.01 3.88Q31.81 3.46 32.78 3.46L32.78 3.46L32.78 3.46Q34.53 3.46 35.42 4.70L35.42 4.70L35.42 4.70Q36.31 5.94 36.31 8.31L36.31 8.31L36.31 8.31Q36.31 9.20 36.10 10.05L36.10 10.05L36.10 10.05Q35.90 10.90 35.50 11.63L35.50 11.63L35.50 11.63Q35.09 12.36 34.53 12.91L34.53 12.91L34.53 12.91Q33.97 13.47 33.21 13.78L33.21 13.78L33.21 13.78Q32.44 14.10 31.58 14.10L31.58 14.10L31.58 14.10Q30.75 14.10 30.02 13.92L30.02 13.92L30.08 13.39L30.08 13.39Q30.42 13.45 30.87 13.45ZM32.78 4.20L32.78 4.20L32.78 4.20Q32.37 4.20 32.00 4.37L32.00 4.37L32.00 4.37Q31.62 4.53 31.32 4.85L31.32 4.85L31.32 4.85Q31.01 5.16 30.84 5.69L30.84 5.69L30.84 5.69Q30.66 6.22 30.66 6.89L30.66 6.89L30.66 6.89Q30.66 7.57 30.84 8.07L30.84 8.07L30.84 8.07Q31.02 8.58 31.34 8.87L31.34 8.87L31.34 8.87Q31.66 9.17 32.05 9.31L32.05 9.31L32.05 9.31Q32.44 9.45 32.92 9.45L32.92 9.45L32.92 9.45Q33.81 9.45 34.86 8.96L34.86 8.96L34.86 8.96Q34.89 8.73 34.89 8.25L34.89 8.25L34.89 8.25Q34.89 7.31 34.78 6.60L34.78 6.60L34.78 6.60Q34.67 5.88 34.43 5.33L34.43 5.33L34.43 5.33Q34.19 4.78 33.78 4.49L33.78 4.49L33.78 4.49Q33.36 4.20 32.78 4.20ZM39.16 13.45L39.16 13.45L39.16 13.45Q40.72 13.45 41.77 12.40L41.77 12.40L41.77 12.40Q42.83 11.35 43.09 9.45L43.09 9.45L43.09 9.45Q41.82 10.34 40.74 10.34L40.74 10.34L40.74 10.34Q39.38 10.34 38.47 9.42L38.47 9.42L38.47 9.42Q37.56 8.50 37.56 6.98L37.56 6.98L37.56 6.98Q37.56 5.92 38.04 5.11L38.04 5.11L38.04 5.11Q38.51 4.30 39.30 3.88L39.30 3.88L39.30 3.88Q40.09 3.46 41.06 3.46L41.06 3.46L41.06 3.46Q42.81 3.46 43.70 4.70L43.70 4.70L43.70 4.70Q44.59 5.94 44.59 8.31L44.59 8.31L44.59 8.31Q44.59 9.20 44.39 10.05L44.39 10.05L44.39 10.05Q44.19 10.90 43.78 11.63L43.78 11.63L43.78 11.63Q43.37 12.36 42.82 12.91L42.82 12.91L42.82 12.91Q42.26 13.47 41.49 13.78L41.49 13.78L41.49 13.78Q40.73 14.10 39.86 14.10L39.86 14.10L39.86 14.10Q39.04 14.10 38.30 13.92L38.30 13.92L38.37 13.39L38.37 13.39Q38.71 13.45 39.16 13.45ZM41.06 4.20L41.06 4.20L41.06 4.20Q40.65 4.20 40.28 4.37L40.28 4.37L40.28 4.37Q39.91 4.53 39.60 4.85L39.60 4.85L39.60 4.85Q39.30 5.16 39.12 5.69L39.12 5.69L39.12 5.69Q38.94 6.22 38.94 6.89L38.94 6.89L38.94 6.89Q38.94 7.57 39.13 8.07L39.13 8.07L39.13 8.07Q39.31 8.58 39.62 8.87L39.62 8.87L39.62 8.87Q39.94 9.17 40.34 9.31L40.34 9.31L40.34 9.31Q40.73 9.45 41.20 9.45L41.20 9.45L41.20 9.45Q42.10 9.45 43.15 8.96L43.15 8.96L43.15 8.96Q43.18 8.73 43.18 8.25L43.18 8.25L43.18 8.25Q43.18 7.31 43.07 6.60L43.07 6.60L43.07 6.60Q42.96 5.88 42.72 5.33L42.72 5.33L42.72 5.33Q42.48 4.78 42.06 4.49L42.06 4.49L42.06 4.49Q41.64 4.20 41.06 4.20Z"></path></g><!----><g data-v-423bf9ae="" id="99e004c5-9cbf-4620-8765-86687d2ecbbb" transform="matrix(1.0868111504448785,0,0,1.0868111504448785,-13.255261890115804,-0.23894260335429607)" stroke="none" fill="#727FD5"><g clip-rule="evenodd"><path d="M12.983 10.59l17.018 88.223-5.872-59.049 29.021-1.892-.054-9.883L64.549 1 53.622 18.977z"></path><path d="M59.389 54.548l5.16-53.541-8.74 39.716-19.612 1.045 1.57 20.462-7.766 36.583 12.057-39.899z"></path><path d="M62.8 67.182l.549-10.453-15.979 3.755-.032 11.797-17.337 26.532 21.68-27.616zM65.711 62.394l14.841-4.731 1.509-12.532-15.899 2.095zM72.07 44.502l10.988-1.417 1.581-10.278-8.079-.373L64.549 1l8.43 30.967z"></path><path d="M87.413 31.294l1.256-9.506-9.544-2.694L64.549 1l14.483 22.437-.422 7z"></path></g></g><!----><g data-v-423bf9ae="" id="a46aacef-69e2-475f-b78c-111c31d43388" fill="#FFFFFF" transform="matrix(0.38900430087769006,0,0,0.38900430087769006,102.21748375057226,58.8718856536494)"><path d="M0.10 3.51C0.10 3.75 0.21 3.77 0.38 3.77L0.88 3.77C0.97 3.77 3.11 10.99 3.14 11.07C3.49 12.14 3.60 12.99 3.91 12.99C4.13 12.99 4.23 12.67 4.51 12.26C4.66 12.05 4.76 12.01 4.90 11.66L6.89 6.45C6.96 6.29 6.99 6.20 7.01 6.20C7.04 6.20 7.07 6.29 7.11 6.45C7.71 8.51 8.39 11.03 8.40 11.07C8.75 12.14 8.86 12.99 9.17 12.99C9.39 12.99 9.49 12.67 9.77 12.26C9.93 12.05 10.02 12.01 10.16 11.66L13.26 4.06C13.36 3.81 13.36 3.77 13.72 3.77C13.96 3.77 14.01 3.71 14.01 3.53C14.01 3.32 13.97 3.26 13.78 3.26C13.64 3.26 13.33 3.30 12.82 3.30C12.08 3.30 11.58 3.26 11.38 3.26C11.20 3.26 11.10 3.28 11.10 3.51C11.10 3.75 11.21 3.77 11.38 3.77L12.29 3.77C12.36 3.77 12.38 3.81 12.38 3.95C12.38 4.63 10.78 8.72 10.07 10.63C9.93 10.99 9.86 11.17 9.81 11.17C9.76 11.17 9.70 10.99 9.58 10.60C9.49 10.30 8.57 7.18 8.04 5.22C7.99 5.05 7.78 4.17 7.78 3.85C7.78 3.81 7.78 3.79 7.80 3.77L8.68 3.77C8.86 3.77 8.96 3.75 8.96 3.56C8.96 3.32 8.92 3.26 8.72 3.26C8.40 3.26 7.46 3.30 7.04 3.30C6.62 3.30 5.71 3.26 5.49 3.26C5.31 3.26 5.21 3.28 5.21 3.51C5.21 3.75 5.32 3.77 5.49 3.77L6.29 3.77C6.33 3.77 6.51 4.27 6.66 4.83C6.72 5.05 6.76 5.15 6.76 5.25C6.76 5.31 6.76 5.38 6.72 5.49L4.72 10.60C4.62 10.82 4.59 10.95 4.55 10.95C4.51 10.95 4.48 10.84 4.40 10.60C4.31 10.32 3.30 7.27 2.70 5.22C2.66 5.08 2.34 3.96 2.32 3.85C2.34 3.77 2.38 3.77 2.42 3.77L3.12 3.77C3.35 3.77 3.42 3.75 3.42 3.56C3.42 3.32 3.37 3.26 3.18 3.26C2.86 3.26 2.14 3.30 1.72 3.30C1.30 3.30 0.60 3.26 0.38 3.26C0.20 3.26 0.10 3.28 0.10 3.51ZM21.14 8.15C21.14 11.17 23.48 12.80 25.73 12.80C28.52 12.80 30.49 10.89 30.49 8.06C30.49 5.33 28.74 3.11 25.94 3.11C23.34 3.11 21.14 5.10 21.14 8.15ZM22.54 7.77C22.54 5.64 23.83 3.58 25.80 3.58C28.04 3.58 29.12 5.81 29.12 7.94C29.12 10.08 28.01 12.32 25.75 12.32C23.76 12.32 22.54 10.28 22.54 7.77ZM38.60 3.51C38.60 3.72 38.67 3.79 38.86 3.79L39.68 3.77C39.77 3.77 39.82 6.61 39.82 8.55L39.82 10.42C39.82 11.30 39.80 12.18 39.76 12.18L39.16 12.18C38.93 12.18 38.86 12.19 38.86 12.39C38.86 12.63 38.91 12.68 39.10 12.68C39.23 12.68 40.05 12.64 40.47 12.64C40.89 12.64 41.66 12.68 41.99 12.68C42.15 12.68 42.18 12.61 42.18 12.40C42.18 12.24 42.15 12.18 41.99 12.18L41.17 12.18C41.10 12.18 41.02 9.18 41.02 8.37C41.02 8.30 41.02 8.26 41.13 8.26C41.52 8.26 42.13 8.27 42.42 8.27C44.66 8.32 44.80 10.00 44.80 11.68L44.80 12.49C44.80 12.61 44.86 12.64 44.95 12.64C44.95 12.64 46.40 12.68 46.87 12.68C47.04 12.68 47.10 12.64 47.10 12.53C47.10 12.24 47.04 12.18 46.89 12.18L46.24 12.18C46.14 12.18 46.12 12.14 46.09 11.31C46.00 8.99 44.63 8.34 43.72 8.05C43.58 8.01 43.61 8.01 43.72 7.95C44.31 7.69 45.63 6.94 45.63 5.63C45.63 3.63 43.93 3.21 42.53 3.21C42.21 3.21 40.92 3.29 40.50 3.29C40.08 3.29 39.10 3.26 38.88 3.26C38.70 3.26 38.60 3.28 38.60 3.51ZM41.02 7.80L41.02 4.40C41.02 4.05 41.05 3.68 41.09 3.68C41.30 3.65 41.58 3.65 41.80 3.65C43.11 3.65 44.35 4.47 44.35 5.82C44.35 6.99 43.81 7.57 43.15 7.88C43.11 7.90 43.06 7.90 42.99 7.90C42.52 7.88 41.80 7.88 41.20 7.87C41.03 7.87 41.02 7.85 41.02 7.80ZM54.50 12.46C54.50 12.63 54.52 12.70 54.70 12.70C54.85 12.70 56.08 12.64 56.48 12.64C57.33 12.64 58.21 12.70 59.07 12.70C61.68 12.70 64.08 11.07 64.08 7.91C64.08 4.89 61.74 3.07 58.70 3.07C58.14 3.07 56.88 3.23 55.85 3.23C55.37 3.23 54.91 3.22 54.85 3.22C54.67 3.22 54.66 3.32 54.66 3.49C54.66 3.68 54.73 3.70 54.85 3.70L55.82 3.67C55.85 3.67 55.85 4.20 55.85 4.72C55.85 5.91 55.76 12.21 55.68 12.21L54.78 12.21C54.60 12.21 54.50 12.22 54.50 12.46ZM57.08 11.40C57.08 9.46 57.08 7.52 57.09 5.60C57.09 5.03 57.13 3.61 57.18 3.60C57.47 3.53 58.06 3.51 58.41 3.51C60.97 3.51 62.58 5.75 62.58 7.73C62.58 8.95 62.54 12.25 57.86 12.25C57.60 12.25 57.19 12.25 57.09 12.21C57.08 12.19 57.08 11.79 57.08 11.40ZM72.18 3.51C72.18 3.75 72.23 3.79 72.44 3.79L73.36 3.77C73.42 3.77 73.42 4.47 73.42 5.24L73.42 5.96C73.42 7.70 73.40 12.18 73.29 12.18L72.62 12.18C72.39 12.18 72.32 12.19 72.32 12.39C72.32 12.63 72.34 12.68 72.53 12.68C72.66 12.68 73.64 12.64 74.06 12.64C74.48 12.64 75.35 12.68 75.67 12.68C75.84 12.68 75.87 12.61 75.87 12.40C75.87 12.24 75.84 12.18 75.67 12.18L74.68 12.18C74.63 12.18 74.62 10.60 74.62 9.58L74.62 8.65C74.62 8.57 74.62 8.54 74.72 8.54C75.11 8.54 75.43 8.58 75.94 8.58C77.92 8.58 79.32 7.83 79.32 6.01C79.32 4.09 77.84 3.22 75.92 3.22C75.60 3.22 74.51 3.29 74.09 3.29C73.85 3.29 72.66 3.26 72.44 3.26C72.25 3.26 72.18 3.28 72.18 3.51ZM74.63 8.05L74.63 4.40C74.63 4.05 74.65 3.70 74.69 3.68C74.82 3.67 74.98 3.67 75.12 3.67C76.78 3.67 78.04 4.47 78.04 5.80C78.04 7.57 76.71 8.19 75.12 8.19C74.87 8.19 74.63 8.16 74.63 8.05ZM87.08 3.51C87.08 3.72 87.15 3.79 87.35 3.79L88.16 3.77C88.26 3.77 88.30 6.61 88.30 8.55L88.30 10.42C88.30 11.30 88.28 12.18 88.24 12.18L87.64 12.18C87.42 12.18 87.35 12.19 87.35 12.39C87.35 12.63 87.39 12.68 87.58 12.68C87.71 12.68 88.54 12.64 88.96 12.64C89.38 12.64 90.15 12.68 90.47 12.68C90.64 12.68 90.66 12.61 90.66 12.40C90.66 12.24 90.64 12.18 90.47 12.18L89.66 12.18C89.59 12.18 89.50 9.18 89.50 8.37C89.50 8.30 89.50 8.26 89.61 8.26C90.01 8.26 90.61 8.27 90.90 8.27C93.14 8.32 93.28 10.00 93.28 11.68L93.28 12.49C93.28 12.61 93.34 12.64 93.44 12.64C93.44 12.64 94.88 12.68 95.35 12.68C95.52 12.68 95.58 12.64 95.58 12.53C95.58 12.24 95.52 12.18 95.37 12.18L94.72 12.18C94.63 12.18 94.60 12.14 94.57 11.31C94.49 8.99 93.11 8.34 92.20 8.05C92.06 8.01 92.09 8.01 92.20 7.95C92.79 7.69 94.11 6.94 94.11 5.63C94.11 3.63 92.41 3.21 91.01 3.21C90.69 3.21 89.40 3.29 88.98 3.29C88.56 3.29 87.58 3.26 87.36 3.26C87.18 3.26 87.08 3.28 87.08 3.51ZM89.50 7.80L89.50 4.40C89.50 4.05 89.53 3.68 89.57 3.68C89.78 3.65 90.06 3.65 90.29 3.65C91.59 3.65 92.83 4.47 92.83 5.82C92.83 6.99 92.29 7.57 91.63 7.88C91.59 7.90 91.55 7.90 91.48 7.90C91 7.88 90.29 7.88 89.68 7.87C89.52 7.87 89.50 7.85 89.50 7.80ZM103.05 12.39C103.05 12.63 103.08 12.68 103.28 12.68C103.60 12.68 104.57 12.64 104.99 12.64C105.41 12.64 109.91 12.68 110.24 12.68C110.36 12.68 110.52 12.66 110.52 12.49C110.52 12.07 110.56 11.23 110.56 10.53C110.56 10.39 110.40 10.39 110.28 10.39C110.17 10.39 110.04 10.39 110.04 10.51C110.03 11.06 110.03 11.41 110.00 11.76C109.97 12.01 109.97 12.04 109.87 12.04C109.72 12.04 107.09 12.08 105.59 12.08C105.52 12.08 105.48 10.11 105.43 8.26C105.43 8.06 105.48 8.09 105.62 8.09L107.90 8.09C108.60 8.09 108.63 8.20 108.63 8.30L108.63 9.00C108.63 9.14 108.81 9.14 108.92 9.14C109.02 9.14 109.14 9.13 109.14 9.02C109.14 8.83 109.12 8.33 109.12 7.83C109.12 7.32 109.14 6.83 109.14 6.71C109.14 6.59 109.00 6.58 108.91 6.58C108.79 6.58 108.63 6.59 108.63 6.72L108.63 7.45C108.63 7.62 108.18 7.63 107.90 7.63L105.56 7.63C105.45 7.63 105.43 7.63 105.43 7.45C105.42 6.75 105.41 6.06 105.41 5.46C105.41 5.12 105.41 3.71 105.49 3.71C106.72 3.71 109.23 3.75 109.23 3.81C109.23 3.99 109.19 4.83 109.19 4.89C109.19 5.04 109.26 5.10 109.44 5.10C109.63 5.10 109.70 5.08 109.70 4.94C109.70 3.85 109.76 3.36 109.76 3.09C109.76 2.91 109.68 2.90 109.48 2.90C109.28 2.90 109.28 2.95 109.26 3.11C109.24 3.25 109.31 3.25 108.40 3.25C107.79 3.25 105.64 3.29 104.87 3.29C104.38 3.29 103.45 3.25 103.35 3.25C103.22 3.25 103.17 3.30 103.17 3.49C103.17 3.72 103.24 3.74 103.40 3.74L104.06 3.74C104.12 3.74 104.19 4.79 104.19 5.71C104.19 5.80 104.24 8.27 104.24 9.83L104.24 11.17C104.24 11.84 104.22 12.18 104.19 12.18L103.33 12.18C103.11 12.18 103.05 12.21 103.05 12.39ZM118.73 5.77C118.73 9.07 123.72 8.20 123.72 10.65C123.72 11.59 122.88 12.31 121.90 12.31C121.07 12.31 119.48 11.83 119.45 11.47L119.36 10.15C119.35 9.97 119.28 9.91 119.10 9.91L119.03 9.91C118.82 9.91 118.82 10.00 118.82 10.12C118.82 10.32 118.93 11.66 118.96 12.17C118.97 12.38 120.23 12.85 121.77 12.85C123.34 12.85 124.95 11.87 124.95 10.11C124.95 6.79 119.98 7.87 119.98 5.32C119.98 4.31 120.76 3.56 121.80 3.56C122.82 3.56 123.91 4.58 123.91 4.89C123.91 5.01 123.87 5.73 123.87 5.78C123.87 5.92 123.91 5.99 124.18 5.99C124.42 5.99 124.43 5.94 124.43 5.75C124.43 5.04 124.52 3.68 124.52 3.53C124.52 3.30 124.47 3.29 124.21 3.29C123.98 3.29 123.97 3.32 123.96 3.53C123.96 3.61 123.94 3.78 123.90 3.78C123.84 3.78 123.76 3.74 123.69 3.68C122.89 3.14 122.28 3.08 121.77 3.08C120.25 3.08 118.73 4.17 118.73 5.77ZM133.13 5.77C133.13 9.07 138.11 8.20 138.11 10.65C138.11 11.59 137.27 12.31 136.29 12.31C135.46 12.31 133.87 11.83 133.84 11.47L133.76 10.15C133.74 9.97 133.67 9.91 133.49 9.91L133.42 9.91C133.21 9.91 133.21 10.00 133.21 10.12C133.21 10.32 133.32 11.66 133.35 12.17C133.36 12.38 134.62 12.85 136.16 12.85C137.73 12.85 139.34 11.87 139.34 10.11C139.34 6.79 134.37 7.87 134.37 5.32C134.37 4.31 135.16 3.56 136.19 3.56C137.21 3.56 138.31 4.58 138.31 4.89C138.31 5.01 138.26 5.73 138.26 5.78C138.26 5.92 138.31 5.99 138.57 5.99C138.81 5.99 138.82 5.94 138.82 5.75C138.82 5.04 138.91 3.68 138.91 3.53C138.91 3.30 138.87 3.29 138.60 3.29C138.38 3.29 138.36 3.32 138.35 3.53C138.35 3.61 138.33 3.78 138.29 3.78C138.24 3.78 138.15 3.74 138.08 3.68C137.28 3.14 136.67 3.08 136.16 3.08C134.64 3.08 133.13 4.17 133.13 5.77ZM157.11 3.51C157.11 3.72 157.18 3.79 157.37 3.79L158.19 3.77C158.28 3.77 158.33 6.61 158.33 8.55L158.33 10.42C158.33 11.30 158.31 12.18 158.27 12.18L157.67 12.18C157.44 12.18 157.37 12.19 157.37 12.39C157.37 12.63 157.42 12.68 157.61 12.68C157.74 12.68 158.56 12.64 158.98 12.64C159.40 12.64 160.17 12.68 160.50 12.68C160.66 12.68 160.69 12.61 160.69 12.40C160.69 12.24 160.66 12.18 160.50 12.18L159.68 12.18C159.61 12.18 159.53 9.18 159.53 8.37C159.53 8.30 159.53 8.26 159.64 8.26C160.03 8.26 160.64 8.27 160.93 8.27C163.17 8.32 163.31 10.00 163.31 11.68L163.31 12.49C163.31 12.61 163.37 12.64 163.46 12.64C163.46 12.64 164.91 12.68 165.38 12.68C165.55 12.68 165.61 12.64 165.61 12.53C165.61 12.24 165.55 12.18 165.40 12.18L164.75 12.18C164.65 12.18 164.63 12.14 164.60 11.31C164.51 8.99 163.14 8.34 162.23 8.05C162.09 8.01 162.12 8.01 162.23 7.95C162.82 7.69 164.14 6.94 164.14 5.63C164.14 3.63 162.44 3.21 161.04 3.21C160.72 3.21 159.43 3.29 159.01 3.29C158.59 3.29 157.61 3.26 157.39 3.26C157.21 3.26 157.11 3.28 157.11 3.51ZM159.53 7.80L159.53 4.40C159.53 4.05 159.56 3.68 159.60 3.68C159.81 3.65 160.09 3.65 160.31 3.65C161.62 3.65 162.86 4.47 162.86 5.82C162.86 6.99 162.32 7.57 161.66 7.88C161.62 7.90 161.57 7.90 161.50 7.90C161.03 7.88 160.31 7.88 159.71 7.87C159.54 7.87 159.53 7.85 159.53 7.80ZM173.08 12.39C173.08 12.63 173.11 12.68 173.31 12.68C173.63 12.68 174.59 12.64 175.01 12.64C175.43 12.64 179.94 12.68 180.26 12.68C180.39 12.68 180.54 12.66 180.54 12.49C180.54 12.07 180.59 11.23 180.59 10.53C180.59 10.39 180.43 10.39 180.31 10.39C180.19 10.39 180.07 10.39 180.07 10.51C180.05 11.06 180.05 11.41 180.03 11.76C180.00 12.01 180.00 12.04 179.90 12.04C179.75 12.04 177.11 12.08 175.62 12.08C175.55 12.08 175.50 10.11 175.46 8.26C175.46 8.06 175.50 8.09 175.64 8.09L177.93 8.09C178.63 8.09 178.65 8.20 178.65 8.30L178.65 9.00C178.65 9.14 178.84 9.14 178.95 9.14C179.05 9.14 179.17 9.13 179.17 9.02C179.17 8.83 179.14 8.33 179.14 7.83C179.14 7.32 179.17 6.83 179.17 6.71C179.17 6.59 179.03 6.58 178.93 6.58C178.82 6.58 178.65 6.59 178.65 6.72L178.65 7.45C178.65 7.62 178.21 7.63 177.93 7.63L175.59 7.63C175.48 7.63 175.46 7.63 175.46 7.45C175.45 6.75 175.43 6.06 175.43 5.46C175.43 5.12 175.43 3.71 175.52 3.71C176.75 3.71 179.26 3.75 179.26 3.81C179.26 3.99 179.21 4.83 179.21 4.89C179.21 5.04 179.28 5.10 179.47 5.10C179.66 5.10 179.73 5.08 179.73 4.94C179.73 3.85 179.79 3.36 179.79 3.09C179.79 2.91 179.70 2.90 179.51 2.90C179.31 2.90 179.31 2.95 179.28 3.11C179.27 3.25 179.34 3.25 178.43 3.25C177.81 3.25 175.67 3.29 174.90 3.29C174.41 3.29 173.47 3.25 173.38 3.25C173.25 3.25 173.19 3.30 173.19 3.49C173.19 3.72 173.26 3.74 173.43 3.74L174.09 3.74C174.15 3.74 174.22 4.79 174.22 5.71C174.22 5.80 174.27 8.27 174.27 9.83L174.27 11.17C174.27 11.84 174.24 12.18 174.22 12.18L173.36 12.18C173.14 12.18 173.08 12.21 173.08 12.39ZM188.62 7.91C188.62 11.31 190.99 12.87 193.58 12.87C195.36 12.87 197.13 11.90 197.18 11.59C197.34 10.29 197.40 9.70 197.40 9.66C197.40 9.56 197.36 9.52 197.19 9.51C197.13 9.51 197.08 9.49 197.04 9.49C196.92 9.49 196.87 9.53 196.84 9.70L196.66 11.33C196.64 11.45 195.54 12.24 193.97 12.24C191.84 12.24 190.13 10.29 190.13 7.94C190.13 5.42 191.56 3.54 193.56 3.54C195.41 3.54 196.76 5.01 196.76 5.17C196.76 5.29 196.70 6.40 196.70 6.45C196.70 6.59 196.74 6.64 197.01 6.64C197.20 6.64 197.27 6.62 197.27 6.44C197.27 5.73 197.33 3.92 197.33 3.67C197.33 3.47 197.22 3.44 197.01 3.44C196.78 3.44 196.76 3.50 196.76 3.67L196.76 4.05C196.76 4.16 196.71 4.16 196.59 4.06C196.31 3.86 195.33 3.04 193.66 3.04C190.82 3.04 188.62 4.96 188.62 7.91ZM205.86 8.15C205.86 11.17 208.19 12.80 210.45 12.80C213.23 12.80 215.21 10.89 215.21 8.06C215.21 5.33 213.46 3.11 210.66 3.11C208.05 3.11 205.86 5.10 205.86 8.15ZM207.26 7.77C207.26 5.64 208.54 3.58 210.52 3.58C212.76 3.58 213.84 5.81 213.84 7.94C213.84 10.08 212.73 12.32 210.46 12.32C208.47 12.32 207.26 10.28 207.26 7.77ZM223.24 12.39C223.24 12.63 223.27 12.68 223.47 12.68C223.71 12.68 224.21 12.64 224.63 12.64C225.05 12.64 225.54 12.68 225.86 12.68C226.03 12.68 226.06 12.61 226.06 12.40C226.06 12.24 226.03 12.18 225.86 12.18L224.90 12.18C224.84 12.18 224.83 11.54 224.83 10.79C224.83 8.96 224.87 6.13 224.94 4.28C224.97 3.88 224.99 3.91 225.13 4.27L228.40 12.32C228.49 12.54 228.56 12.74 228.68 12.74C228.77 12.74 228.84 12.63 228.93 12.45C229.26 11.79 229.45 11.75 229.71 11.09L232.30 4.47C232.43 4.16 232.47 4.02 232.48 4.47C232.51 5.66 232.55 8.47 232.55 9.74C232.55 10.99 232.51 12.18 232.46 12.18L231.83 12.18C231.60 12.18 231.53 12.19 231.53 12.39C231.53 12.63 231.56 12.68 231.76 12.68C231.95 12.68 232.65 12.64 233.25 12.64C233.67 12.64 234.43 12.68 234.75 12.68C234.92 12.68 234.95 12.61 234.95 12.40C234.95 12.22 234.89 12.18 234.72 12.18L234.00 12.18C233.88 12.18 233.79 8.44 233.79 6.03L233.79 4.77C233.79 4.17 233.81 3.77 233.86 3.70L234.51 3.70C234.74 3.70 234.78 3.68 234.78 3.49C234.78 3.25 234.77 3.19 234.57 3.19C234.25 3.19 233.56 3.23 233.14 3.23L232.47 3.23C232.25 3.23 232.22 3.29 232.11 3.58L229.36 10.72C229.28 10.95 229.25 11.02 229.14 10.74L226.20 3.40C226.13 3.22 226.07 3.19 225.93 3.19C225.85 3.19 225.36 3.23 225.05 3.23C224.55 3.23 223.69 3.19 223.50 3.19C223.36 3.19 223.36 3.26 223.36 3.47C223.36 3.64 223.36 3.70 223.50 3.70L224.20 3.70C224.46 3.70 224.46 3.72 224.46 3.84C224.46 4.82 224.25 9.94 224.21 10.79C224.17 11.55 224.17 12.18 224.11 12.18L223.54 12.18C223.31 12.18 223.24 12.19 223.24 12.39ZM242.77 12.39C242.77 12.63 242.80 12.68 243.00 12.68C243.24 12.68 243.74 12.64 244.16 12.64C244.58 12.64 245.07 12.68 245.39 12.68C245.56 12.68 245.59 12.61 245.59 12.40C245.59 12.24 245.56 12.18 245.39 12.18L244.43 12.18C244.37 12.18 244.36 11.54 244.36 10.79C244.36 8.96 244.40 6.13 244.47 4.28C244.50 3.88 244.52 3.91 244.66 4.27L247.93 12.32C248.02 12.54 248.09 12.74 248.21 12.74C248.30 12.74 248.37 12.63 248.46 12.45C248.79 11.79 248.98 11.75 249.24 11.09L251.83 4.47C251.96 4.16 252 4.02 252.01 4.47C252.04 5.66 252.08 8.47 252.08 9.74C252.08 10.99 252.04 12.18 251.99 12.18L251.36 12.18C251.13 12.18 251.06 12.19 251.06 12.39C251.06 12.63 251.09 12.68 251.29 12.68C251.48 12.68 252.18 12.64 252.78 12.64C253.20 12.64 253.96 12.68 254.28 12.68C254.45 12.68 254.48 12.61 254.48 12.40C254.48 12.22 254.42 12.18 254.25 12.18L253.53 12.18C253.41 12.18 253.32 8.44 253.32 6.03L253.32 4.77C253.32 4.17 253.34 3.77 253.39 3.70L254.04 3.70C254.27 3.70 254.31 3.68 254.31 3.49C254.31 3.25 254.30 3.19 254.10 3.19C253.78 3.19 253.09 3.23 252.67 3.23L252 3.23C251.78 3.23 251.75 3.29 251.64 3.58L248.89 10.72C248.81 10.95 248.78 11.02 248.67 10.74L245.73 3.40C245.66 3.22 245.60 3.19 245.46 3.19C245.38 3.19 244.89 3.23 244.58 3.23C244.08 3.23 243.22 3.19 243.03 3.19C242.89 3.19 242.89 3.26 242.89 3.47C242.89 3.64 242.89 3.70 243.03 3.70L243.73 3.70C243.99 3.70 243.99 3.72 243.99 3.84C243.99 4.82 243.78 9.94 243.74 10.79C243.70 11.55 243.70 12.18 243.64 12.18L243.07 12.18C242.84 12.18 242.77 12.19 242.77 12.39ZM262.37 12.39C262.37 12.63 262.40 12.68 262.60 12.68C262.92 12.68 263.89 12.64 264.31 12.64C264.73 12.64 269.23 12.68 269.56 12.68C269.68 12.68 269.84 12.66 269.84 12.49C269.84 12.07 269.88 11.23 269.88 10.53C269.88 10.39 269.72 10.39 269.60 10.39C269.49 10.39 269.36 10.39 269.36 10.51C269.35 11.06 269.35 11.41 269.32 11.76C269.29 12.01 269.29 12.04 269.19 12.04C269.04 12.04 266.41 12.08 264.91 12.08C264.84 12.08 264.80 10.11 264.75 8.26C264.75 8.06 264.80 8.09 264.94 8.09L267.22 8.09C267.92 8.09 267.95 8.20 267.95 8.30L267.95 9.00C267.95 9.14 268.13 9.14 268.24 9.14C268.34 9.14 268.46 9.13 268.46 9.02C268.46 8.83 268.44 8.33 268.44 7.83C268.44 7.32 268.46 6.83 268.46 6.71C268.46 6.59 268.32 6.58 268.23 6.58C268.11 6.58 267.95 6.59 267.95 6.72L267.95 7.45C267.95 7.62 267.50 7.63 267.22 7.63L264.88 7.63C264.77 7.63 264.75 7.63 264.75 7.45C264.74 6.75 264.73 6.06 264.73 5.46C264.73 5.12 264.73 3.71 264.81 3.71C266.04 3.71 268.55 3.75 268.55 3.81C268.55 3.99 268.51 4.83 268.51 4.89C268.51 5.04 268.58 5.10 268.76 5.10C268.95 5.10 269.02 5.08 269.02 4.94C269.02 3.85 269.08 3.36 269.08 3.09C269.08 2.91 269.00 2.90 268.80 2.90C268.60 2.90 268.60 2.95 268.58 3.11C268.56 3.25 268.63 3.25 267.72 3.25C267.11 3.25 264.96 3.29 264.19 3.29C263.70 3.29 262.77 3.25 262.67 3.25C262.54 3.25 262.49 3.30 262.49 3.49C262.49 3.72 262.56 3.74 262.72 3.74L263.38 3.74C263.44 3.74 263.51 4.79 263.51 5.71C263.51 5.80 263.56 8.27 263.56 9.83L263.56 11.17C263.56 11.84 263.54 12.18 263.51 12.18L262.65 12.18C262.43 12.18 262.37 12.21 262.37 12.39ZM277.84 12.39C277.84 12.63 277.86 12.68 278.05 12.68C278.24 12.68 278.61 12.64 279.23 12.64C279.86 12.64 280.42 12.68 280.74 12.68C280.91 12.68 280.91 12.61 280.91 12.40C280.91 12.24 280.91 12.18 280.74 12.18L279.54 12.18C279.50 12.18 279.48 11.54 279.48 10.79C279.48 9.46 279.50 7.48 279.50 5.99C279.50 5.25 279.50 4.84 279.51 4.28C279.51 4.02 279.58 4.14 279.71 4.28L286.59 12.66C286.68 12.75 286.76 12.89 286.87 12.89C286.99 12.89 287.06 12.77 287.06 12.54C287.06 12.39 287.22 6.65 287.24 4.48C287.24 4.06 287.27 3.70 287.29 3.70L287.92 3.70C288.15 3.70 288.20 3.68 288.20 3.49C288.20 3.25 288.20 3.19 288.01 3.19C287.81 3.19 287.38 3.23 286.82 3.23C286.20 3.23 285.40 3.19 285.31 3.19C285.14 3.19 285.14 3.26 285.14 3.47C285.14 3.64 285.14 3.70 285.31 3.70L286.61 3.70C286.62 3.70 286.62 4.33 286.62 4.44C286.62 5.85 286.65 8.33 286.65 9.70L286.65 10.29C286.65 10.57 286.64 10.65 286.41 10.37L280.73 3.39C280.62 3.25 280.59 3.19 280.42 3.19C280.34 3.19 279.96 3.23 279.65 3.23C279.36 3.23 278.28 3.19 278.08 3.19C277.91 3.19 277.89 3.26 277.89 3.47C277.89 3.64 277.91 3.70 278.08 3.70L278.99 3.70C278.99 4.17 278.95 8.53 278.88 10.79C278.85 11.69 278.87 12.18 278.75 12.18L278.11 12.18C277.89 12.18 277.84 12.19 277.84 12.39ZM296.17 12.46C296.17 12.63 296.18 12.70 296.37 12.70C296.52 12.70 297.75 12.64 298.14 12.64C299.00 12.64 299.88 12.70 300.73 12.70C303.35 12.70 305.75 11.07 305.75 7.91C305.75 4.89 303.41 3.07 300.37 3.07C299.81 3.07 298.55 3.23 297.51 3.23C297.04 3.23 296.58 3.22 296.52 3.22C296.34 3.22 296.32 3.32 296.32 3.49C296.32 3.68 296.39 3.70 296.52 3.70L297.49 3.67C297.51 3.67 297.51 4.20 297.51 4.72C297.51 5.91 297.43 12.21 297.35 12.21L296.45 12.21C296.27 12.21 296.17 12.22 296.17 12.46ZM298.75 11.40C298.75 9.46 298.75 7.52 298.76 5.60C298.76 5.03 298.80 3.61 298.84 3.60C299.14 3.53 299.73 3.51 300.08 3.51C302.64 3.51 304.25 5.75 304.25 7.73C304.25 8.95 304.21 12.25 299.53 12.25C299.26 12.25 298.86 12.25 298.76 12.21C298.75 12.19 298.75 11.79 298.75 11.40ZM313.15 12.39C313.15 12.63 313.15 12.68 313.35 12.68C313.52 12.68 313.84 12.64 314.41 12.64C315.03 12.64 315.57 12.68 315.73 12.68C315.90 12.68 315.90 12.61 315.90 12.40C315.90 12.24 315.90 12.18 315.73 12.18L314.65 12.18C314.65 12.18 314.64 12.18 314.64 12.17C314.65 11.87 315.42 9.90 315.77 9.02C315.84 8.83 315.85 8.79 316.06 8.79L318.89 8.79C319.03 8.79 319.03 8.81 319.10 9.03C319.37 9.77 320.08 11.89 320.08 12.17C320.08 12.18 320.07 12.18 320.07 12.18L319.30 12.18C319.07 12.18 319.06 12.19 319.06 12.39C319.06 12.63 319.07 12.68 319.24 12.68C319.56 12.68 320.43 12.64 320.85 12.64C321.27 12.64 321.94 12.68 322.15 12.68C322.29 12.68 322.31 12.61 322.31 12.40C322.31 12.24 322.29 12.18 322.15 12.18L321.66 12.18C321.57 12.18 320.54 9.34 319.98 7.78L318.30 3.07C318.29 3.00 318.22 2.94 318.14 2.94C318.01 2.94 317.91 3.16 317.83 3.35C317.67 3.71 317.44 3.84 317.32 4.13L315.84 7.57C315.66 8.01 313.95 12.18 313.82 12.18L313.40 12.18C313.18 12.18 313.15 12.19 313.15 12.39ZM316.05 8.33C316.05 8.30 316.08 8.23 316.12 8.13L317.49 4.77C317.53 4.66 317.56 4.61 317.59 4.61C317.60 4.61 317.62 4.63 317.66 4.77L318.82 8.18C318.85 8.25 318.86 8.29 318.86 8.32C318.86 8.36 318.84 8.37 318.74 8.37L316.23 8.37C316.05 8.37 316.05 8.34 316.05 8.33ZM328.40 5.01C328.40 5.17 328.58 5.17 328.71 5.17C328.86 5.17 328.90 5.15 328.92 4.97L329.03 3.89C329.04 3.81 329.59 3.75 330.34 3.75L332.33 3.75C332.39 3.75 332.42 4.35 332.42 4.97C332.42 6.43 332.36 12.18 332.23 12.18L331.37 12.18C331.14 12.18 331.10 12.19 331.10 12.39C331.10 12.63 331.11 12.68 331.31 12.68C331.63 12.68 332.61 12.64 333.03 12.64C333.45 12.64 334.39 12.68 334.71 12.68C334.88 12.68 334.91 12.61 334.91 12.40C334.91 12.24 334.88 12.18 334.71 12.18L333.72 12.18C333.69 12.18 333.69 11.76 333.69 11.31C333.69 9.56 333.77 5.96 333.77 5.92C333.79 5.18 333.79 3.75 333.89 3.75L335.50 3.75C336.21 3.75 337.04 3.78 337.04 3.85C337.04 3.99 336.99 4.90 336.99 4.97C336.99 5.12 337.06 5.17 337.25 5.17C337.44 5.17 337.51 5.17 337.51 5.03C337.51 3.93 337.57 3.40 337.57 3.14C337.57 2.94 337.48 2.94 337.29 2.94C337.13 2.94 337.08 2.98 337.06 3.16C337.06 3.23 336.42 3.28 335.58 3.28L330.58 3.28C329.92 3.28 329.11 3.28 329.11 3.21L329.11 3.07C329.11 2.94 328.99 2.94 328.89 2.94C328.66 2.94 328.64 3.00 328.62 3.19C328.57 3.89 328.40 4.97 328.40 5.01ZM345.18 12.39C345.18 12.63 345.23 12.68 345.42 12.68C345.74 12.68 346.50 12.64 347.21 12.64C347.87 12.64 348.67 12.68 348.89 12.68C349.06 12.68 349.09 12.61 349.09 12.40C349.09 12.24 349.06 12.18 348.89 12.18L347.93 12.18C347.83 12.18 347.80 9.55 347.80 7.76L347.80 5.87C347.80 5.14 347.83 3.70 347.93 3.70L348.84 3.70C349.06 3.70 349.09 3.68 349.09 3.49C349.09 3.25 349.06 3.19 348.89 3.19C348.57 3.19 347.90 3.23 347.24 3.23C346.43 3.23 345.72 3.19 345.49 3.19C345.31 3.19 345.24 3.21 345.24 3.44C345.24 3.68 345.32 3.70 345.49 3.70L346.42 3.70C346.46 3.70 346.53 4.79 346.53 5.71L346.53 7.08C346.53 8.92 346.51 12.18 346.40 12.18L345.48 12.18C345.25 12.18 345.18 12.19 345.18 12.39ZM357.06 8.15C357.06 11.17 359.39 12.80 361.65 12.80C364.43 12.80 366.41 10.89 366.41 8.06C366.41 5.33 364.66 3.11 361.86 3.11C359.25 3.11 357.06 5.10 357.06 8.15ZM358.46 7.77C358.46 5.64 359.74 3.58 361.72 3.58C363.96 3.58 365.04 5.81 365.04 7.94C365.04 10.08 363.93 12.32 361.66 12.32C359.67 12.32 358.46 10.28 358.46 7.77ZM374.51 12.39C374.51 12.63 374.53 12.68 374.72 12.68C374.91 12.68 375.28 12.64 375.90 12.64C376.53 12.64 377.09 12.68 377.41 12.68C377.58 12.68 377.58 12.61 377.58 12.40C377.58 12.24 377.58 12.18 377.41 12.18L376.21 12.18C376.17 12.18 376.15 11.54 376.15 10.79C376.15 9.46 376.17 7.48 376.17 5.99C376.17 5.25 376.17 4.84 376.18 4.28C376.18 4.02 376.25 4.14 376.38 4.28L383.26 12.66C383.35 12.75 383.43 12.89 383.54 12.89C383.66 12.89 383.73 12.77 383.73 12.54C383.73 12.39 383.89 6.65 383.91 4.48C383.91 4.06 383.94 3.70 383.96 3.70L384.59 3.70C384.82 3.70 384.87 3.68 384.87 3.49C384.87 3.25 384.87 3.19 384.68 3.19C384.48 3.19 384.05 3.23 383.49 3.23C382.87 3.23 382.07 3.19 381.98 3.19C381.81 3.19 381.81 3.26 381.81 3.47C381.81 3.64 381.81 3.70 381.98 3.70L383.28 3.70C383.29 3.70 383.29 4.33 383.29 4.44C383.29 5.85 383.32 8.33 383.32 9.70L383.32 10.29C383.32 10.57 383.31 10.65 383.08 10.37L377.40 3.39C377.29 3.25 377.26 3.19 377.09 3.19C377.01 3.19 376.63 3.23 376.32 3.23C376.03 3.23 374.95 3.19 374.75 3.19C374.58 3.19 374.56 3.26 374.56 3.47C374.56 3.64 374.58 3.70 374.75 3.70L375.66 3.70C375.66 4.17 375.62 8.53 375.55 10.79C375.52 11.69 375.54 12.18 375.42 12.18L374.78 12.18C374.56 12.18 374.51 12.19 374.51 12.39ZM393.12 5.77C393.12 9.07 398.10 8.20 398.10 10.65C398.10 11.59 397.26 12.31 396.28 12.31C395.46 12.31 393.86 11.83 393.83 11.47L393.75 10.15C393.74 9.97 393.67 9.91 393.48 9.91L393.41 9.91C393.20 9.91 393.20 10.00 393.20 10.12C393.20 10.32 393.32 11.66 393.34 12.17C393.36 12.38 394.62 12.85 396.16 12.85C397.73 12.85 399.34 11.87 399.34 10.11C399.34 6.79 394.37 7.87 394.37 5.32C394.37 4.31 395.15 3.56 396.19 3.56C397.21 3.56 398.30 4.58 398.30 4.89C398.30 5.01 398.26 5.73 398.26 5.78C398.26 5.92 398.30 5.99 398.57 5.99C398.80 5.99 398.82 5.94 398.82 5.75C398.82 5.04 398.90 3.68 398.90 3.53C398.90 3.30 398.86 3.29 398.59 3.29C398.37 3.29 398.36 3.32 398.34 3.53C398.34 3.61 398.33 3.78 398.29 3.78C398.23 3.78 398.15 3.74 398.08 3.68C397.28 3.14 396.66 3.08 396.16 3.08C394.63 3.08 393.12 4.17 393.12 5.77ZM417.03 12.39C417.03 12.63 417.06 12.68 417.26 12.68C417.49 12.68 418.00 12.64 418.42 12.64C418.84 12.64 419.33 12.68 419.65 12.68C419.82 12.68 419.85 12.61 419.85 12.40C419.85 12.24 419.82 12.18 419.65 12.18L418.68 12.18C418.63 12.18 418.61 11.54 418.61 10.79C418.61 8.96 418.66 6.13 418.73 4.28C418.75 3.88 418.78 3.91 418.92 4.27L422.18 12.32C422.28 12.54 422.35 12.74 422.46 12.74C422.56 12.74 422.63 12.63 422.72 12.45C423.05 11.79 423.23 11.75 423.50 11.09L426.09 4.47C426.22 4.16 426.26 4.02 426.27 4.47C426.30 5.66 426.34 8.47 426.34 9.74C426.34 10.99 426.30 12.18 426.24 12.18L425.61 12.18C425.39 12.18 425.32 12.19 425.32 12.39C425.32 12.63 425.35 12.68 425.54 12.68C425.74 12.68 426.44 12.64 427.04 12.64C427.46 12.64 428.22 12.68 428.54 12.68C428.71 12.68 428.74 12.61 428.74 12.40C428.74 12.22 428.68 12.18 428.51 12.18L427.78 12.18C427.67 12.18 427.57 8.44 427.57 6.03L427.57 4.77C427.57 4.17 427.60 3.77 427.64 3.70L428.30 3.70C428.53 3.70 428.57 3.68 428.57 3.49C428.57 3.25 428.55 3.19 428.36 3.19C428.04 3.19 427.35 3.23 426.93 3.23L426.26 3.23C426.03 3.23 426.01 3.29 425.89 3.58L423.15 10.72C423.07 10.95 423.04 11.02 422.93 10.74L419.99 3.40C419.92 3.22 419.86 3.19 419.72 3.19C419.64 3.19 419.15 3.23 418.84 3.23C418.33 3.23 417.48 3.19 417.28 3.19C417.14 3.19 417.14 3.26 417.14 3.47C417.14 3.64 417.14 3.70 417.28 3.70L417.98 3.70C418.25 3.70 418.25 3.72 418.25 3.84C418.25 4.82 418.04 9.94 418.00 10.79C417.96 11.55 417.96 12.18 417.90 12.18L417.33 12.18C417.10 12.18 417.03 12.19 417.03 12.39ZM436.49 12.39C436.49 12.63 436.49 12.68 436.69 12.68C436.86 12.68 437.18 12.64 437.75 12.64C438.37 12.64 438.91 12.68 439.07 12.68C439.24 12.68 439.24 12.61 439.24 12.40C439.24 12.24 439.24 12.18 439.07 12.18L437.99 12.18C437.99 12.18 437.98 12.18 437.98 12.17C437.99 11.87 438.76 9.90 439.11 9.02C439.18 8.83 439.19 8.79 439.40 8.79L442.23 8.79C442.37 8.79 442.37 8.81 442.44 9.03C442.71 9.77 443.42 11.89 443.42 12.17C443.42 12.18 443.41 12.18 443.41 12.18L442.64 12.18C442.41 12.18 442.40 12.19 442.40 12.39C442.40 12.63 442.41 12.68 442.58 12.68C442.90 12.68 443.77 12.64 444.19 12.64C444.61 12.64 445.28 12.68 445.49 12.68C445.63 12.68 445.65 12.61 445.65 12.40C445.65 12.24 445.63 12.18 445.49 12.18L445.00 12.18C444.91 12.18 443.88 9.34 443.32 7.78L441.64 3.07C441.63 3.00 441.56 2.94 441.48 2.94C441.35 2.94 441.25 3.16 441.17 3.35C441.01 3.71 440.78 3.84 440.66 4.13L439.18 7.57C439.00 8.01 437.29 12.18 437.16 12.18L436.74 12.18C436.52 12.18 436.49 12.19 436.49 12.39ZM439.39 8.33C439.39 8.30 439.42 8.23 439.46 8.13L440.83 4.77C440.87 4.66 440.90 4.61 440.93 4.61C440.94 4.61 440.96 4.63 441.00 4.77L442.16 8.18C442.19 8.25 442.20 8.29 442.20 8.32C442.20 8.36 442.18 8.37 442.08 8.37L439.57 8.37C439.39 8.37 439.39 8.34 439.39 8.33ZM453.61 5.77C453.61 9.07 458.60 8.20 458.60 10.65C458.60 11.59 457.76 12.31 456.78 12.31C455.95 12.31 454.36 11.83 454.33 11.47L454.24 10.15C454.23 9.97 454.16 9.91 453.98 9.91L453.91 9.91C453.70 9.91 453.70 10.00 453.70 10.12C453.70 10.32 453.81 11.66 453.84 12.17C453.85 12.38 455.11 12.85 456.65 12.85C458.22 12.85 459.83 11.87 459.83 10.11C459.83 6.79 454.86 7.87 454.86 5.32C454.86 4.31 455.64 3.56 456.68 3.56C457.70 3.56 458.79 4.58 458.79 4.89C458.79 5.01 458.75 5.73 458.75 5.78C458.75 5.92 458.79 5.99 459.06 5.99C459.30 5.99 459.31 5.94 459.31 5.75C459.31 5.04 459.40 3.68 459.40 3.53C459.40 3.30 459.35 3.29 459.09 3.29C458.86 3.29 458.85 3.32 458.84 3.53C458.84 3.61 458.82 3.78 458.78 3.78C458.72 3.78 458.64 3.74 458.57 3.68C457.77 3.14 457.16 3.08 456.65 3.08C455.13 3.08 453.61 4.17 453.61 5.77ZM467.39 5.01C467.39 5.17 467.57 5.17 467.70 5.17C467.85 5.17 467.89 5.15 467.91 4.97L468.02 3.89C468.03 3.81 468.58 3.75 469.34 3.75L471.32 3.75C471.38 3.75 471.41 4.35 471.41 4.97C471.41 6.43 471.35 12.18 471.23 12.18L470.36 12.18C470.13 12.18 470.09 12.19 470.09 12.39C470.09 12.63 470.11 12.68 470.30 12.68C470.62 12.68 471.60 12.64 472.02 12.64C472.44 12.64 473.38 12.68 473.70 12.68C473.87 12.68 473.90 12.61 473.90 12.40C473.90 12.24 473.87 12.18 473.70 12.18L472.71 12.18C472.68 12.18 472.68 11.76 472.68 11.31C472.68 9.56 472.77 5.96 472.77 5.92C472.78 5.18 472.78 3.75 472.88 3.75L474.49 3.75C475.20 3.75 476.03 3.78 476.03 3.85C476.03 3.99 475.99 4.90 475.99 4.97C475.99 5.12 476.06 5.17 476.24 5.17C476.43 5.17 476.50 5.17 476.50 5.03C476.50 3.93 476.56 3.40 476.56 3.14C476.56 2.94 476.48 2.94 476.28 2.94C476.13 2.94 476.07 2.98 476.06 3.16C476.06 3.23 475.41 3.28 474.57 3.28L469.57 3.28C468.92 3.28 468.10 3.28 468.10 3.21L468.10 3.07C468.10 2.94 467.98 2.94 467.88 2.94C467.66 2.94 467.63 3.00 467.61 3.19C467.56 3.89 467.39 4.97 467.39 5.01ZM484.32 12.39C484.32 12.63 484.34 12.68 484.54 12.68C484.86 12.68 485.83 12.64 486.25 12.64C486.67 12.64 491.18 12.68 491.50 12.68C491.62 12.68 491.78 12.66 491.78 12.49C491.78 12.07 491.82 11.23 491.82 10.53C491.82 10.39 491.67 10.39 491.54 10.39C491.43 10.39 491.30 10.39 491.30 10.51C491.29 11.06 491.29 11.41 491.26 11.76C491.23 12.01 491.23 12.04 491.13 12.04C490.98 12.04 488.35 12.08 486.85 12.08C486.78 12.08 486.74 10.11 486.70 8.26C486.70 8.06 486.74 8.09 486.88 8.09L489.16 8.09C489.86 8.09 489.89 8.20 489.89 8.30L489.89 9.00C489.89 9.14 490.07 9.14 490.18 9.14C490.28 9.14 490.41 9.13 490.41 9.02C490.41 8.83 490.38 8.33 490.38 7.83C490.38 7.32 490.41 6.83 490.41 6.71C490.41 6.59 490.27 6.58 490.17 6.58C490.06 6.58 489.89 6.59 489.89 6.72L489.89 7.45C489.89 7.62 489.44 7.63 489.16 7.63L486.82 7.63C486.71 7.63 486.70 7.63 486.70 7.45C486.68 6.75 486.67 6.06 486.67 5.46C486.67 5.12 486.67 3.71 486.75 3.71C487.98 3.71 490.49 3.75 490.49 3.81C490.49 3.99 490.45 4.83 490.45 4.89C490.45 5.04 490.52 5.10 490.70 5.10C490.90 5.10 490.97 5.08 490.97 4.94C490.97 3.85 491.02 3.36 491.02 3.09C491.02 2.91 490.94 2.90 490.74 2.90C490.55 2.90 490.55 2.95 490.52 3.11C490.50 3.25 490.57 3.25 489.66 3.25C489.05 3.25 486.91 3.29 486.14 3.29C485.65 3.29 484.71 3.25 484.61 3.25C484.48 3.25 484.43 3.30 484.43 3.49C484.43 3.72 484.50 3.74 484.67 3.74L485.32 3.74C485.38 3.74 485.45 4.79 485.45 5.71C485.45 5.80 485.51 8.27 485.51 9.83L485.51 11.17C485.51 11.84 485.48 12.18 485.45 12.18L484.60 12.18C484.37 12.18 484.32 12.21 484.32 12.39ZM499.79 3.51C499.79 3.72 499.86 3.79 500.05 3.79L500.86 3.77C500.96 3.77 501.00 6.61 501.00 8.55L501.00 10.42C501.00 11.30 500.99 12.18 500.95 12.18L500.35 12.18C500.12 12.18 500.05 12.19 500.05 12.39C500.05 12.63 500.09 12.68 500.29 12.68C500.42 12.68 501.24 12.64 501.66 12.64C502.08 12.64 502.85 12.68 503.17 12.68C503.34 12.68 503.37 12.61 503.37 12.40C503.37 12.24 503.34 12.18 503.17 12.18L502.36 12.18C502.29 12.18 502.21 9.18 502.21 8.37C502.21 8.30 502.21 8.26 502.32 8.26C502.71 8.26 503.31 8.27 503.61 8.27C505.85 8.32 505.99 10.00 505.99 11.68L505.99 12.49C505.99 12.61 506.04 12.64 506.14 12.64C506.14 12.64 507.58 12.68 508.06 12.68C508.23 12.68 508.28 12.64 508.28 12.53C508.28 12.24 508.23 12.18 508.07 12.18L507.43 12.18C507.33 12.18 507.30 12.14 507.28 11.31C507.19 8.99 505.82 8.34 504.91 8.05C504.77 8.01 504.80 8.01 504.91 7.95C505.50 7.69 506.81 6.94 506.81 5.63C506.81 3.63 505.12 3.21 503.72 3.21C503.40 3.21 502.11 3.29 501.69 3.29C501.27 3.29 500.29 3.26 500.07 3.26C499.88 3.26 499.79 3.28 499.79 3.51ZM502.21 7.80L502.21 4.40C502.21 4.05 502.24 3.68 502.28 3.68C502.49 3.65 502.77 3.65 502.99 3.65C504.29 3.65 505.54 4.47 505.54 5.82C505.54 6.99 504.99 7.57 504.34 7.88C504.29 7.90 504.25 7.90 504.18 7.90C503.71 7.88 502.99 7.88 502.39 7.87C502.22 7.87 502.21 7.85 502.21 7.80Z"></path></g></svg>